Coordinates
version=1
nRows=17
nColumns=23
inDegrees=yes

Units are S.I. units (second, meters, Newtons, ...)
If the header above contains a line with 'inDegrees', this indicates whether rotational values are in degrees (yes) or radians (no).

endheader
time	pelvis_tilt	pelvis_list	pelvis_rotation	pelvis_tx	pelvis_ty	pelvis_tz	hip_flexion_r	hip_adduction_r	hip_rotation_r	knee_angle_r	knee_angle_r_beta	ankle_angle_r	subtalar_angle_r	mtp_angle_r	hip_flexion_l	hip_adduction_l	hip_rotation_l	knee_angle_l	knee_angle_l_beta	ankle_angle_l	subtalar_angle_l	mtp_angle_l
     22.50000000	    -15.98580835	      4.23018427	     -1.32384322	      2.18989540	      1.10837136	      1.03071398	      2.79418069	     -8.09474244	    -18.82679582	     27.31501321	      0.47673692	    -16.03077843	      3.37596592	      0.00000000	     35.63929807	     -0.09503378	    -15.81804385	     28.42378604	      0.49608865	      5.82653995	     -1.87968830	      0.00000000
     22.50666667	    -15.82866663	      4.37185130	     -1.28220373	      2.19039834	      1.10910526	      1.02956687	      2.76232876	     -8.66440276	    -18.88905741	     29.10892831	      0.50804664	    -16.94619774	      2.25596966	      0.00000000	     34.80522241	      0.50383813	    -16.69479149	     24.75022465	      0.43197291	      5.98634293	     -0.15825382	      0.00000000
     22.51333333	    -15.92064502	      4.40278071	     -1.06722267	      2.19058466	      1.10889661	      1.02810369	      3.05920156	     -9.12603939	    -18.99816687	     31.11493301	      0.54305803	    -17.76360141	      1.04794168	      0.00000000	     34.37026049	      1.17298076	    -16.91942953	     21.43072582	      0.37403673	      6.28022381	      1.33531562	      0.00000000
     22.52000000	    -15.96483056	      4.46377613	     -0.87091977	      2.19071967	      1.10827520	      1.02670330	      3.39369439	     -9.57687825	    -18.85742686	     33.28749970	      0.58097647	    -18.28871133	     -0.19371458	      0.00000000	     33.89550556	      1.88274349	    -16.90568686	     18.32732650	      0.31987219	      6.52564785	      2.65735486	      0.00000000
     22.52666667	    -15.77998055	      4.63551803	     -0.76303933	      2.19077914	      1.10758994	      1.02539275	      3.60719955	    -10.08107376	    -18.33925499	     35.61568321	      0.62161094	    -18.64055016	     -1.56636447	      0.00000000	     32.99598799	      2.85400977	    -15.91475449	     14.98606982	      0.26155626	      5.97704274	      2.32215286	      0.00000000
     22.53333333	    -15.70605698	      4.72103893	     -0.57529731	      2.19069800	      1.10619361	      1.02416794	      4.00369407	    -10.45312346	    -17.78415266	     38.09081968	      0.66481022	    -18.80759820	     -2.82115537	      0.00000000	     32.31630014	      3.66951549	    -14.68079400	     12.15773873	      0.21219257	      5.64241253	      2.17476641	      0.00000000
     22.54000000	    -15.63204819	      4.76858267	     -0.42934672	      2.19046511	      1.10426208	      1.02315287	      4.51235954	    -10.73935328	    -17.07691246	     40.71928603	      0.71068561	    -18.82815809	     -3.98887237	      0.00000000	     31.82827537	      4.21748416	    -14.02668889	     10.07719082	      0.17588016	      5.52597391	      2.90930432	      0.00000000
     22.54666667	    -15.40431890	      4.81833353	     -0.18491969	      2.19029310	      1.10215520	      1.02227355	      4.86810748	    -10.91905239	    -16.27504196	     43.36268540	      0.75682163	    -18.86693946	     -5.21677909	      0.00000000	     31.01057879	      4.92128139	    -11.98895115	      7.93055131	      0.13841423	      4.86914418	      1.72364091	      0.00000000
     22.55333333	    -15.22463053	      4.86140517	      0.05709863	      2.18990256	      1.09942362	      1.02146493	      5.38999985	    -11.10874440	    -15.50748579	     46.18741515	      0.80612247	    -18.79684468	     -6.09598928	      0.00000000	     30.69344759	      5.31722367	    -11.34994438	      7.08022188	      0.12357318	      4.81266700	      2.37957936	      0.00000000
     22.56000000	    -14.93010362	      4.92609883	      0.34379446	      2.18944235	      1.09644781	      1.02073759	      5.84434005	    -11.29689387	    -14.78351134	     49.07841759	      0.85657998	    -18.75291923	     -6.99638190	      0.00000000	     30.35947305	      5.69750105	    -10.71988657	      6.76173603	      0.11801456	      4.72365113	      2.71661749	      0.00000000
     22.56666667	    -14.76507813	      4.98245556	      0.52841942	      2.18879233	      1.09291890	      1.02025353	      6.58251482	    -11.36167653	    -13.76760282	     52.06755624	      0.90875029	    -18.94749310	     -7.92001478	      0.00000000	     30.29477457	      5.96147307	    -10.15578442	      6.98406121	      0.12189486	      4.29515399	      2.57700367	      0.00000000
     22.57333333	    -14.52796156	      5.05598534	      0.82967991	      2.18803554	      1.08901630	      1.01970527	      7.27051810	    -11.48465673	    -12.98766277	     55.11319460	      0.96190671	    -19.22089446	     -8.72979863	      0.00000000	     30.41618609	      6.20667202	     -9.82249874	      8.04317623	      0.14037991	      4.14897767	      2.51748414	      0.00000000
     22.58000000	    -14.28993023	      5.17230585	      1.11467473	      2.18718201	      1.08465497	      1.01923325	      8.04072436	    -11.64845584	    -12.21587187	     58.22979521	      1.01630165	    -19.61328358	     -9.37429788	      0.00000000	     30.71973521	      6.41227337	     -9.72852604	      9.73984810	      0.16999242	      4.05630747	      2.37076760	      0.00000000
     22.58666667	    -14.06616434	      5.23148354	      1.42474548	      2.18618619	      1.07980087	      1.01882762	      8.88001694	    -11.75430285	    -11.52906391	     61.36719915	      1.07105968	    -20.16039174	    -10.04169520	      0.00000000	     31.26320574	      6.48768847	     -9.80609976	     12.13720938	      0.21183427	      4.14605443	      2.22927953	      0.00000000
     22.59333333	    -13.82342981	      5.29442071	      1.70207035	      2.18515238	      1.07452411	      1.01853864	      9.75810542	    -11.84385010	    -10.83216950	     64.50193907	      1.12577121	    -20.86254371	    -10.74038714	      0.00000000	     31.93990287	      6.45394270	    -10.21026720	     15.07068568	      0.26303309	      4.45733166	      2.36049971	      0.00000000
     22.60000000	    -13.54303642	      5.34736082	      1.96731766	      2.18401806	      1.06889437	      1.01832159	     10.65248744	    -11.93668954	    -10.19615076	     67.63746271	      1.18049642	    -21.59908862	    -11.33761427	      0.00000000	     32.60547140	      6.42518497	    -10.25070728	     18.22764922	      0.31813249	      4.85419437	      1.80834685	      0.00000000
     22.60666667	    -13.33947850	      5.40226186	      2.24884868	      2.18272084	      1.06285317	      1.01804717	     11.68498962	    -12.05524087	     -9.61147468	     70.77324585	      1.23522616	    -22.32027653	    -11.80181088	      0.00000000	     33.34542849	      6.51894840	     -9.72094317	     21.45157232	      0.37440057	      5.34431154	      0.35853017	      0.00000000
